<?xml version="1.0" encoding="UTF-8"?>
<svg id="Layer_2" data-name="Layer 2" xmlns="http://www.w3.org/2000/svg" version="1.1" xmlns:xlink="http://www.w3.org/1999/xlink" viewBox="0 0 33.3 32.2">
  <defs>
    <style>
      .cls-1 {
        fill: #1a2758;
      }

      .cls-1, .cls-2, .cls-3 {
        stroke-width: 0px;
      }

      .cls-2 {
        fill: none;
      }

      .cls-4 {
        clip-path: url(#clippath);
      }

      .cls-3 {
        fill: #fff;
      }
    </style>
    <clipPath id="clippath">
      <rect class="cls-2" width="33.3" height="32.2"/>
    </clipPath>
  </defs>
  <g id="Layer_1-2" data-name="Layer 1-2">
    <g class="cls-4">
      <g>
        <rect class="cls-1" width="33.3" height="32.2" rx="6.2" ry="6.2"/>
        <path class="cls-3" d="M18.6,9.3c0-.3,0-.6,0-.8,0-.2.1-.4.2-.6.1-.2.3-.3.5-.4.2,0,.6,0,1,0h2.2V3h-3.6c-2.1,0-3.6.5-4.5,1.5-.9,1-1.4,2.4-1.4,4.4v2.7h-2.7v4.5h2.7v13h5.4v-13h3.6l.5-4.5h-4.1v-2.2h0Z"/>
      </g>
    </g>
  </g>
</svg>