<?xml version="1.0" encoding="UTF-8"?>
<svg id="Layer_2" data-name="Layer 2" xmlns="http://www.w3.org/2000/svg" version="1.1" xmlns:xlink="http://www.w3.org/1999/xlink" viewBox="0 0 33.3 32.2">
  <defs>
    <style>
      .cls-1 {
        fill: #1a2758;
      }

      .cls-1, .cls-2, .cls-3 {
        stroke-width: 0px;
      }

      .cls-2 {
        fill: none;
      }

      .cls-4 {
        clip-path: url(#clippath);
      }

      .cls-3 {
        fill: #fff;
      }
    </style>
    <clipPath id="clippath">
      <rect class="cls-2" width="33.3" height="32.2"/>
    </clipPath>
  </defs>
  <g id="Layer_1-2" data-name="Layer 1-2">
    <g class="cls-4">
      <g>
        <rect class="cls-1" width="33.3" height="32.2" rx="6.2" ry="6.2"/>
        <path class="cls-3" d="M16.6,2.9c-3.6,0-4,0-5.4,0-1.4,0-2.4.3-3.2.6-.9.3-1.6.8-2.3,1.5-.7.7-1.2,1.5-1.5,2.3-.3.8-.5,1.8-.6,3.2,0,1.4,0,1.9,0,5.4s0,4,0,5.4c0,1.4.3,2.4.6,3.2.3.9.8,1.6,1.5,2.3.7.7,1.5,1.2,2.3,1.5.8.3,1.8.5,3.2.6,1.4,0,1.9,0,5.4,0s4,0,5.4,0c1.4,0,2.4-.3,3.2-.6.9-.3,1.6-.8,2.3-1.5.7-.7,1.2-1.5,1.5-2.3.3-.8.5-1.8.6-3.2,0-1.4,0-1.9,0-5.4s0-4,0-5.4c0-1.4-.3-2.4-.6-3.2-.3-.9-.8-1.6-1.5-2.3-.7-.7-1.5-1.2-2.3-1.5-.8-.3-1.8-.5-3.2-.6-1.4,0-1.9,0-5.4,0M16.6,5.3c3.5,0,3.9,0,5.3,0,1.3,0,2,.3,2.5.4.6.2,1.1.5,1.5,1s.8.9,1,1.5c.2.5.4,1.2.5,2.4,0,1.4,0,1.8,0,5.3s0,3.9,0,5.3c0,1.3-.3,2-.5,2.5-.2.6-.5,1.1-1,1.5-.5.5-.9.8-1.5,1-.5.2-1.2.4-2.5.5-1.4,0-1.8,0-5.3,0s-3.9,0-5.3,0c-1.3,0-2-.3-2.4-.5-.6-.2-1.1-.5-1.5-1s-.8-.9-1-1.5c-.2-.5-.4-1.2-.4-2.5,0-1.4,0-1.8,0-5.3s0-3.9,0-5.3c0-1.3.3-2,.4-2.4.2-.6.5-1.1,1-1.5s.9-.8,1.5-1c.5-.2,1.2-.4,2.4-.4,1.4,0,1.8,0,5.3,0"/>
        <path class="cls-3" d="M16.6,20.5c-2.4,0-4.4-2-4.4-4.4s2-4.4,4.4-4.4,4.4,2,4.4,4.4-2,4.4-4.4,4.4M16.6,9.3c-3.7,0-6.8,3-6.8,6.8s3,6.8,6.8,6.8,6.8-3,6.8-6.8-3-6.8-6.8-6.8"/>
        <path class="cls-3" d="M25.3,9.1c0,.9-.7,1.6-1.6,1.6s-1.6-.7-1.6-1.6.7-1.6,1.6-1.6,1.6.7,1.6,1.6"/>
      </g>
    </g>
  </g>
</svg>