<?xml version="1.0" encoding="UTF-8"?>
<svg id="Layer_2" data-name="Layer 2" xmlns="http://www.w3.org/2000/svg" version="1.1" xmlns:xlink="http://www.w3.org/1999/xlink" viewBox="0 0 33.3 32.2">
  <defs>
    <style>
      .cls-1 {
        fill: #1a2758;
      }

      .cls-1, .cls-2, .cls-3 {
        stroke-width: 0px;
      }

      .cls-2 {
        fill: none;
      }

      .cls-4 {
        clip-path: url(#clippath);
      }

      .cls-3 {
        fill: #fff;
      }
    </style>
    <clipPath id="clippath">
      <rect class="cls-2" width="33.3" height="32.2"/>
    </clipPath>
  </defs>
  <g id="Layer_1-2" data-name="Layer 1-2">
    <g class="cls-4">
      <g>
        <rect class="cls-1" width="33.3" height="32.2" rx="6.2" ry="6.2"/>
        <path class="cls-3" d="M27.8,13.6c-.2,0-.4,0-.6,0-2.3,0-4.5-1.2-5.8-3.1v10.7c0,4.4-3.5,7.9-7.9,7.9s-7.9-3.5-7.9-7.9,3.5-7.9,7.9-7.9.3,0,.5,0v3.9c-.2,0-.3,0-.5,0-2.2,0-4,1.8-4,4s1.8,4,4,4,4.2-1.8,4.2-4V3.1h3.8c.4,3.3,3,5.9,6.4,6.2v4.3"/>
      </g>
    </g>
  </g>
</svg>