<?xml version="1.0" encoding="UTF-8"?>
<svg id="Layer_2" data-name="Layer 2" xmlns="http://www.w3.org/2000/svg" version="1.1" viewBox="0 0 33.3 32.2">
  <defs>
    <style>
      .cls-1 {
        fill: #1a2758;
      }

      .cls-1, .cls-2 {
        stroke-width: 0px;
      }

      .cls-2 {
        fill: #fff;
      }
    </style>
  </defs>
  <g id="Layer_1-2" data-name="Layer 1-2">
    <g>
      <rect class="cls-1" width="33.3" height="32.2" rx="6.2" ry="6.2"/>
      <path class="cls-2" d="M29.7,15.8c0,7.1-5.8,12.9-12.9,12.9s-4.3-.5-6.2-1.6l-7.1,2.3,2.3-6.9c-1.2-2-1.8-4.3-1.8-6.6,0-7.1,5.8-12.9,12.9-12.9s12.9,5.8,12.9,12.9h0ZM27.6,15.8c0-5.9-4.8-10.7-10.7-10.7S6.2,9.9,6.2,15.8s.7,4.5,2.1,6.3l-1.3,4,4.1-1.3c1.7,1.1,3.8,1.8,5.9,1.8,5.9,0,10.7-4.8,10.7-10.7h0ZM23.5,19.1c0,0,0,.2,0,.3,0,.4-.1.9-.3,1.3-.4,1-2,1.6-3,1.6s-2.5-.7-3.2-1.1c-2.4-1.1-4-3-5.4-5.2-.6-.9-1.2-2.1-1.2-3.3h0c0-1.3.4-2.1,1.3-2.8.3-.2.5-.4.9-.4s.4,0,.6,0c.5,0,.6.1.7.6.1.3,1,2.6,1,2.8,0,.6-1.2,1.4-1.2,1.8s0,.2,0,.3c.4.8,1.1,1.7,1.7,2.3.8.8,1.6,1.2,2.6,1.7.1,0,.2.1.4.1.5,0,1.4-1.6,1.8-1.6s3.1,1.5,3.2,1.6h0Z"/>
    </g>
  </g>
</svg>