<?xml version="1.0" encoding="UTF-8"?>
<svg id="Layer_2" data-name="Layer 2" xmlns="http://www.w3.org/2000/svg" version="1.1" xmlns:xlink="http://www.w3.org/1999/xlink" viewBox="0 0 32.4 32.3">
  <defs>
    <style>
      .cls-1 {
        fill: #1a2758;
      }

      .cls-1, .cls-2, .cls-3 {
        stroke-width: 0px;
      }

      .cls-2 {
        fill: none;
      }

      .cls-4 {
        clip-path: url(#clippath);
      }

      .cls-3 {
        fill: #fff;
      }
    </style>
    <clipPath id="clippath">
      <rect class="cls-2" width="32.4" height="32.3"/>
    </clipPath>
  </defs>
  <g id="Layer_1-2" data-name="Layer 1-2">
    <g class="cls-4">
      <g>
        <rect class="cls-1" width="32.4" height="32.3" rx="6.2" ry="6.2"/>
        <path class="cls-3" d="M13.4,20.2v-8l7,4-7,4ZM29.1,9.7c-.3-1.2-1.2-2.1-2.4-2.4-2.1-.6-10.5-.6-10.5-.6,0,0-8.4,0-10.5.6-1.2.3-2.1,1.2-2.4,2.4-.6,2.1-.6,6.5-.6,6.5,0,0,0,4.4.6,6.5.3,1.2,1.2,2,2.4,2.4,2.1.6,10.5.6,10.5.6,0,0,8.4,0,10.5-.6,1.2-.3,2.1-1.2,2.4-2.4.6-2.1.6-6.5.6-6.5,0,0,0-4.4-.6-6.5"/>
      </g>
    </g>
  </g>
</svg>