<svg xmlns="http://www.w3.org/2000/svg" width="16.545" height="18.908" viewBox="0 0 16.545 18.908">
  <path id="blk-calendar-regular_1_" data-name="blk-calendar-regular (1)" d="M14.772,2.364H13V.443A.444.444,0,0,0,12.556,0H11.079a.444.444,0,0,0-.443.443v1.92H5.909V.443A.444.444,0,0,0,5.466,0H3.988a.444.444,0,0,0-.443.443v1.92H1.773A1.773,1.773,0,0,0,0,4.136v13a1.773,1.773,0,0,0,1.773,1.773h13a1.773,1.773,0,0,0,1.773-1.773v-13A1.773,1.773,0,0,0,14.772,2.364Zm-.222,14.772H1.994a.222.222,0,0,1-.222-.222V5.909h13V16.914A.222.222,0,0,1,14.551,17.136Z"/>
</svg>
