<svg xmlns="http://www.w3.org/2000/svg" width="123.718" height="68.795" viewBox="0 0 123.718 68.795">
  <g id="bread-selected" transform="translate(-115.204 -452)">
    <g id="tick" transform="translate(198.012 452)">
      <circle id="Ellipse_1" data-name="Ellipse 1" cx="20.011" cy="20.011" r="20.011" transform="translate(0 0)" fill="#fff"/>
      <path id="check-circle-solid" d="M48.91,28.455A20.455,20.455,0,1,1,28.455,8,20.451,20.451,0,0,1,48.91,28.455ZM26.088,39.284,41.264,24.108a1.324,1.324,0,0,0,0-1.864L39.4,20.38a1.324,1.324,0,0,0-1.864,0L25.156,32.752,19.374,26.97a1.324,1.324,0,0,0-1.864,0l-1.864,1.864a1.324,1.324,0,0,0,0,1.864l8.578,8.578a1.324,1.324,0,0,0,1.864,0Z" transform="translate(-8 -8)" fill="#00833e"/>
    </g>
    <g id="bread-icon" transform="translate(115.204 458.157)">
      <g id="Group_1809" data-name="Group 1809" transform="translate(0)">
        <path id="bread-slice-solid" d="M35.234,0C13.213,0,0,11.426,0,20.688,0,24.394,2.961,27.4,7.83,27.4V58.723a4.178,4.178,0,0,0,4.4,3.915h46a4.178,4.178,0,0,0,4.4-3.915V27.4c4.869,0,7.83-3.01,7.83-6.716C70.467,11.426,57.255,0,35.234,0Z" fill="#00833e"/>
      </g>
    </g>
  </g>
</svg>
