<svg xmlns="http://www.w3.org/2000/svg" width="25.078" height="33.438" viewBox="0 0 25.078 33.438">
  <path id="file-download-solid" d="M14.629,8.882V0H1.567A1.564,1.564,0,0,0,0,1.567v30.3a1.564,1.564,0,0,0,1.567,1.567H23.511a1.564,1.564,0,0,0,1.567-1.567V10.449H16.2A1.572,1.572,0,0,1,14.629,8.882Zm5,13.806-6.3,6.25a1.112,1.112,0,0,1-1.567,0l-6.3-6.25A1.041,1.041,0,0,1,6.191,20.9h4.258V15.674a1.048,1.048,0,0,1,1.045-1.045h2.09a1.048,1.048,0,0,1,1.045,1.045V20.9h4.258A1.048,1.048,0,0,1,19.625,22.688Zm5-15.831L18.227.457A1.566,1.566,0,0,0,17.117,0h-.4V8.359h8.359v-.4A1.562,1.562,0,0,0,24.621,6.857Z" fill="#fff"/>
</svg>
