<svg xmlns="http://www.w3.org/2000/svg" width="36" height="36" viewBox="0 0 36 36">
  <g id="info" transform="translate(-659.933 -16.933)">
    <circle id="Ellipse_10" data-name="Ellipse 10" cx="18" cy="18" r="18" transform="translate(659.933 16.933)" fill="#f7e07e"/>
    <path id="info-solid" d="M1.052,22.318H2.1v-7.6H1.052A1.055,1.055,0,0,1,0,13.668V11.153A1.055,1.055,0,0,1,1.052,10.1H6.945A1.055,1.055,0,0,1,8,11.153V22.318H9.049A1.055,1.055,0,0,1,10.1,23.37v2.515a1.055,1.055,0,0,1-1.052,1.052h-8A1.055,1.055,0,0,1,0,25.885V23.37A1.055,1.055,0,0,1,1.052,22.318ZM5.051,0A3.788,3.788,0,1,0,8.839,3.788,3.786,3.786,0,0,0,5.051,0Z" transform="translate(672.81 20.843)"/>
  </g>
</svg>
