<svg xmlns="http://www.w3.org/2000/svg" width="20" height="21" fill="none" xmlns:v="https://vecta.io/nano"><path fill-rule="evenodd" d="M9.737 2.51a29.8 29.8 0 0 1 3.887.108 5.01 5.01 0 0 1 1.836.324 3.79 3.79 0 0 1 1.836 1.836 5.01 5.01 0 0 1 .324 1.834c0 .972.108 1.3.108 3.887a29.8 29.8 0 0 1-.108 3.883 5.01 5.01 0 0 1-.324 1.836 3.79 3.79 0 0 1-1.836 1.836 5.01 5.01 0 0 1-1.84.328c-.972 0-1.3.108-3.887.108a29.8 29.8 0 0 1-3.883-.108c-.627.008-1.25-.102-1.836-.324a3.79 3.79 0 0 1-1.835-1.836 5.01 5.01 0 0 1-.323-1.84c0-.972-.108-1.3-.108-3.887a29.8 29.8 0 0 1 .108-3.883 5.01 5.01 0 0 1 .324-1.836 3.88 3.88 0 0 1 .756-1.08c.253-.378.638-.647 1.08-.756a5.01 5.01 0 0 1 1.834-.322 29.8 29.8 0 0 1 3.887-.108zm0-1.728A31.9 31.9 0 0 0 5.742.89c-.811-.002-1.616.145-2.375.432-.655.214-1.248.585-1.727 1.08-.495.479-.866 1.072-1.08 1.727a4.92 4.92 0 0 0-.432 2.375 31.9 31.9 0 0 0-.108 3.995 31.9 31.9 0 0 0 .108 3.995c-.002.812.145 1.617.432 2.376.214.655.584 1.249 1.08 1.728.479.495 1.073.866 1.728 1.08a6.67 6.67 0 0 0 2.375.432 31.9 31.9 0 0 0 3.995.108 31.9 31.9 0 0 0 3.995-.108 6.67 6.67 0 0 0 2.375-.432 4.53 4.53 0 0 0 2.807-2.807 6.67 6.67 0 0 0 .432-2.375c0-1.08.108-1.4.108-3.995a31.92 31.92 0 0 0-.108-3.995 6.67 6.67 0 0 0-.432-2.375c-.214-.655-.584-1.249-1.08-1.728-.479-.496-1.072-.867-1.727-1.081-.759-.287-1.564-.434-2.376-.432A31.9 31.9 0 0 0 9.737.782zm0 4.751c-.655-.011-1.306.11-1.913.356S6.665 6.5 6.202 6.964s-.829 1.015-1.074 1.622-.367 1.258-.356 1.913c0 .982.291 1.943.837 2.76s1.321 1.454 2.229 1.83 1.906.475 2.87.283 1.849-.665 2.544-1.359 1.168-1.58 1.359-2.543.093-1.962-.283-2.87a4.97 4.97 0 0 0-1.83-2.229c-.817-.546-1.777-.837-2.76-.837zm0 8.206a3.18 3.18 0 0 1-1.249-.231c-.397-.16-.757-.399-1.059-.701a3.18 3.18 0 0 1-.931-2.308 3.18 3.18 0 0 1 .931-2.308 3.18 3.18 0 0 1 2.308-.931 3.18 3.18 0 0 1 2.308.931 3.18 3.18 0 0 1 .701 1.059c.16.397.238.821.231 1.249.008.428-.071.852-.231 1.249a3.18 3.18 0 0 1-1.76 1.76 3.18 3.18 0 0 1-1.249.23v.001zm5.183-9.61a1.19 1.19 0 0 0-1.098.733 1.19 1.19 0 0 0 .258 1.295 1.19 1.19 0 0 0 1.295.258 1.19 1.19 0 0 0 .733-1.098 1.2 1.2 0 0 0-1.188-1.188z" fill="#fff"/></svg>