<svg xmlns="http://www.w3.org/2000/svg" width="41.645" height="41.625" viewBox="0 0 41.645 41.625">
  <path id="drumstick-bite-solid" d="M37.574,4.05a13.775,13.775,0,0,0-19.475,0c-2.887,2.879-5.139,6.375-5.139,11.579v6.977l-3.3,3.3a2.725,2.725,0,0,1-2.992.488A4.9,4.9,0,0,0,1.38,34.421a4.838,4.838,0,0,0,4.57,1.228,4.829,4.829,0,0,0,1.228,4.562,4.911,4.911,0,0,0,8.034-5.286,2.73,2.73,0,0,1,.488-2.992L19,28.639h6.985a15.279,15.279,0,0,0,5.033-.813,8.913,8.913,0,0,1,.089-12.287,8.807,8.807,0,0,1,10.465-1.366A13.685,13.685,0,0,0,37.582,4.041Z" transform="translate(0.065 -0.018)" fill="#808586"/>
</svg>
