<?xml version="1.0" encoding="UTF-8"?>
<svg id="Layer_1" data-name="Layer 1" xmlns="http://www.w3.org/2000/svg" viewBox="0 0 736 238">
  <defs>
    <style>
      .cls-1 {
        fill: none;
        stroke: #fff;
        stroke-miterlimit: 1;
        stroke-width: 11px;
      }
    </style>
  </defs>
  <path class="cls-1" d="M3,225h-57c0,0-2,0-2-2l-5-113c0-2-3-2-3,0s0,0,0,0c-1,8-21,113-21,113,0,0,0,1-2,1h-44c0,0-1,0-2-1s-15-1-17-113c0-4-5-3-5,0s-5,113-5,113c0,0,0,2-2,2h-58c0,0-2,0-2-2L102,14c0,0,0-1,2-1h69c0,0,1,0,2,1l12,7c1,6,2,12,3,19,0,2,0,4,0,6s3,2,3,0c0-7,2-14,3-2l14-76c0,0,0-1,2-1h68c0,0,1,0,2,1l2,209c0,0,0,2-2,2Z"/>
  <path class="cls-1" d="M484,225h-6c0,0-1,0-1-1l-1-29c-3-7-5-14-7-21s-3-2-3,0c-2,7-4,15-8,23l-1,27c0,0,0,1-1,1h-59c-1,0-2-1-1-2l5-107s0,0,0-1l-47-99c0-1,0-2,1-2h6c0,0,1,0,2,1l9,28c1,3,2,6,3,9,0,2,0,4,1,6s3,2,3,0c2-6,3-11,4-15l8-28c0,0,0-1,2-1h61c1,0,2,1,1,2l-47,99s0,0,0,1l51,107c0,1,0,2-1,2Z"/>
  <path class="cls-1" d="M512,224V15c0,0,0-2,2-2h48c28,0,5,8,66,23,21,2,31,48,31,83s-9,62-26,82c-15,16-37,24-67,24h-52c0,0-2,0-2-2ZM569,172c0,0,0,2,2,2,19-2,29-2,29-53s-3-3-8-4c-5-1-12-15-21-15h0c0,0-2,0-2,2v105Z"/>
</svg>