<svg xmlns="http://www.w3.org/2000/svg" xmlns:xlink="http://www.w3.org/1999/xlink" width="18" height="43" viewBox="0 0 18 43">
  <defs>
    <clipPath id="clip-path">
      <rect id="Rectangle_476" data-name="Rectangle 476" width="18" height="43" transform="translate(-0.065 0)" fill="none"/>
    </clipPath>
  </defs>
  <g id="spread-icon" transform="translate(0.065 0)" clip-path="url(#clip-path)">
    <path id="utensils-solid" d="M16.837,1.23a99.017,99.017,0,0,1,1.3,10.431,8.539,8.539,0,0,1-5.58,8.471l1.045,19.282a1.949,1.949,0,0,1-1.944,2.049H6.479a1.949,1.949,0,0,1-1.944-2.049L5.58,20.131C2.243,18.917,0,15.888,0,11.66A98.723,98.723,0,0,1,1.3,1.23c.259-1.644,3.669-1.668,3.879.089V12.754c.105.275,1.223.259,1.3,0,.113-2.049.64-11.273.648-11.484.267-1.684,3.62-1.684,3.879,0,.016.219.534,9.435.648,11.484.073.259,1.2.275,1.3,0V1.319c.211-1.749,3.628-1.733,3.887-.089ZM26.49,24.367l-1.215,14.99a1.943,1.943,0,0,0,1.936,2.106h4.535a1.939,1.939,0,0,0,1.944-1.944V1.942A1.944,1.944,0,0,0,31.746,0c-6.681,0-17.93,14.456-5.256,24.368Z" transform="translate(-19.099 0.091)" fill="#808586"/>
  </g>
</svg>
