<svg id="tagline" xmlns="http://www.w3.org/2000/svg" xmlns:xlink="http://www.w3.org/1999/xlink" width="384" height="225.072" viewBox="0 0 384 225.072">
  <defs>
    <filter id="Rectangle_20" x="16.005" y="95.805" width="351.991" height="139.451" filterUnits="userSpaceOnUse">
      <feOffset dy="3" input="SourceAlpha"/>
      <feGaussianBlur stdDeviation="3" result="blur"/>
      <feFlood/>
      <feComposite operator="in" in2="blur"/>
      <feComposite in="SourceGraphic"/>
    </filter>
    <pattern id="pattern" preserveAspectRatio="none" width="100%" height="100%" viewBox="0 0 0 0">
      <image/>
    </pattern>
    <clipPath id="clip-path">
      <g transform="matrix(1, 0, 0, 1, 0, 0)" filter="url(#Rectangle_20)">
        <rect id="Rectangle_20-2" data-name="Rectangle 20" width="333.991" height="121.451" fill="none"/>
      </g>
    </clipPath>
    <clipPath id="clip-path-2">
      <rect id="Rectangle_21" data-name="Rectangle 21" width="384" height="69.656" fill="none"/>
    </clipPath>
  </defs>
  <rect id="Layer_1" data-name="Layer 1" fill="url(#pattern)"/>
  <g id="MXD">
    <g id="Vector_Smart_Object" data-name="Vector Smart Object" transform="translate(25.005 101.805)" opacity="0.502" style="mix-blend-mode: overlay;isolation: isolate">
      <g id="Group_127" data-name="Group 127" transform="translate(0 0)">
        <g id="Group_126" data-name="Group 126" clip-path="url(#clip-path)">
          <path id="Path_666" data-name="Path 666" d="M127.779,121.871H95.136a.91.91,0,0,1-.911-.869L91.343,56.267a.912.912,0,0,0-1.816-.065c0,.039-.008.077-.014.116-.779,4.617-11.973,64.814-11.973,64.814a.912.912,0,0,1-.9.739H51.254a.911.911,0,0,1-.9-.763s-8.9-57.173-9.8-64.856a1.424,1.424,0,1,0-2.827.05c0,2.267-2.642,64.709-2.642,64.709a.91.91,0,0,1-.911.861H.909A.91.91,0,0,1,0,120.857L14.042.8a.911.911,0,0,1,.906-.8H54.457a.911.911,0,0,1,.9.759l6.761,40.286q.87,5.052,1.544,10.971.2,1.8.4,3.7a.912.912,0,0,0,1.812.023q.8-6.228,1.869-11.611L75.991.739a.912.912,0,0,1,.9-.739h39.194a.911.911,0,0,1,.907.821l11.7,120.054a.91.91,0,0,1-.908,1" transform="translate(-0.226 -0.427)" fill="#fff"/>
          <path id="Path_667" data-name="Path 667" d="M1256.891,121.871h-34.572a.912.912,0,0,1-.861-.609l-5.882-16.756q-2.265-6.159-3.866-11.943a.909.909,0,0,0-1.755,0q-1.655,6-4.356,13.287l-5.873,15.437a.912.912,0,0,1-.853.587H1164.99a.909.909,0,0,1-.826-1.295l28.9-61.541a.906.906,0,0,0,0-.776L1165.84,1.3a.909.909,0,0,1,.823-1.3H1201.3a.911.911,0,0,1,.866.624l5.257,15.873q.87,2.29,1.7,5.367.421,1.562.853,3.326a.913.913,0,0,0,1.77.012q1.383-5.316,2.4-8.547l4.871-16.01a.911.911,0,0,1,.873-.645h34.858a.909.909,0,0,1,.824,1.3l-27.068,56.96a.906.906,0,0,0,0,.778l29.208,61.538a.909.909,0,0,1-.824,1.3" transform="translate(-1023.144 -0.427)" fill="#fff"/>
          <path id="Path_668" data-name="Path 668" d="M2059.326,120.958V.9a.911.911,0,0,1,.912-.909h27.592q24.466,0,38.084,13.1,17.892,17.128,17.894,47.911,0,30.311-15.123,46.807-12.906,14.05-38.48,14.05h-29.967a.91.91,0,0,1-.912-.909m33.017-29.513a.918.918,0,0,0,1.017.906q16.717-1.655,16.719-30.393,0-14.6-4.513-23.048-4.512-8.525-12.193-8.525h-.117a.911.911,0,0,0-.912.909Z" transform="translate(-1809.831 -0.423)" fill="#fff"/>
        </g>
      </g>
    </g>
    <g id="Vector_Smart_Object-2" data-name="Vector Smart Object" transform="translate(24.052 98.705)">
      <g id="Vector_Smart_Object-3" data-name="Vector Smart Object" transform="translate(0 0)">
        <g id="Group_128" data-name="Group 128" transform="translate(0 0)">
          <path id="Path_669" data-name="Path 669" d="M466.476,160.345H434.366a4.1,4.1,0,0,1-4.1-3.918l-1.926-43.3c-3.362,18.2-7.842,42.309-8.131,43.866a4.111,4.111,0,0,1-4.033,3.348H391.2a4.088,4.088,0,0,1-4.05-3.441c-.24-1.545-4.04-25.964-6.82-44.385-.706,17.252-1.667,40-1.832,43.907a4.108,4.108,0,0,1-4.1,3.918H341.675a4.1,4.1,0,0,1-4.075-4.578L351.41,37.6a4.1,4.1,0,0,1,4.075-3.625H394.35A4.091,4.091,0,0,1,398.4,37.4l6.548,39.04,7.438-39.127a4.108,4.108,0,0,1,4.031-3.336h38.554a4.088,4.088,0,0,1,4.084,3.7L470.56,155.846a4.1,4.1,0,0,1-4.084,4.5Zm-29.9-6.413h27.357L452.873,40.391H418.326l-7.76,40.822c-.689,3.466-1.3,7.237-1.807,11.237a4.1,4.1,0,0,1-8.152-.1q-.188-1.847-.387-3.6c-.433-3.8-.935-7.374-1.493-10.615L392.4,40.391H357.54L344.27,153.932h27.914c1.038-24.57,2.5-59.732,2.5-61.332a4.673,4.673,0,0,1,4.635-4.806,4.617,4.617,0,0,1,4.55,4.538c.76,6.484,7.75,51.586,9.306,61.6h21.078C416.137,143.8,425,96.094,425.672,92.084a4.1,4.1,0,0,1,8.165.334Z" transform="translate(-337.572 -33.978)" fill="#fff"/>
          <path id="Path_670" data-name="Path 670" d="M1577.159,160.345h-34.008a4.107,4.107,0,0,1-3.872-2.745l-5.786-16.491q-.865-2.354-1.643-4.688-.975,2.92-2.139,6.061l-5.787,15.219a4.124,4.124,0,0,1-3.836,2.644h-33.331a4.1,4.1,0,0,1-3.716-5.841l27.965-59.584L1484.7,39.846a4.1,4.1,0,0,1,3.7-5.868h34.069a4.1,4.1,0,0,1,3.9,2.814l5.171,15.622q.155.406.314.854.1-.339.2-.656l4.782-15.725a4.078,4.078,0,0,1,3.926-2.909h34.29a4.1,4.1,0,0,1,3.706,5.86L1552.606,94.91l28.26,59.577a4.1,4.1,0,0,1-3.708,5.858Zm-32.371-6.413h28.718l-27.164-57.266a4.087,4.087,0,0,1,0-3.514L1571.4,40.391h-28.923l-4.294,14.12c-.659,2.086-1.439,4.864-2.33,8.287a4.1,4.1,0,0,1-7.958-.059q-.415-1.7-.82-3.2c-.514-1.9-1.045-3.58-1.576-4.979l-4.693-14.17h-28.738l25.2,52.754a4.088,4.088,0,0,1,.011,3.509l-26.883,57.277h28.1l5.211-13.7c1.724-4.651,3.137-8.963,4.191-12.79a4.1,4.1,0,0,1,7.908,0c1.021,3.69,2.274,7.561,3.722,11.5Z" transform="translate(-1343.793 -33.978)" fill="#fff"/>
          <path id="Path_671" data-name="Path 671" d="M2396.892,160.345h-29.479a4.107,4.107,0,0,1-4.1-4.1V38.079a4.107,4.107,0,0,1,4.1-4.1h27.142c16.825,0,30.177,4.641,39.686,13.794,12.33,11.81,18.585,28.456,18.585,49.468,0,20.622-5.289,36.851-15.719,48.236C2428.05,155.343,2414.52,160.345,2396.892,160.345Zm-27.169-6.413h27.169c15.757,0,27.7-4.3,35.49-12.791,9.311-10.162,14.032-24.934,14.032-43.9,0-19.2-5.59-34.283-16.614-44.842-8.279-7.969-20.135-12.006-35.245-12.006h-24.833ZM2399.9,131.3a4.113,4.113,0,0,1-4.113-4.1V67.99a4.107,4.107,0,0,1,4.1-4.1h.115c4.327,0,10.412,1.752,14.828,10.1,3.191,5.978,4.812,14.118,4.812,24.185,0,20.7-6.506,31.835-19.337,33.105l-.157.016Zm2.3-60.749V124.5c4.2-1.106,11.034-5.553,11.034-26.329,0-9-1.367-16.127-4.062-21.176C2406.861,72.626,2404.336,71.071,2402.2,70.548Z" transform="translate(-2117.659 -33.978)" fill="#fff"/>
        </g>
      </g>
      <path id="Color_Overlay" data-name="Color Overlay" d="M246.548,119.954a.9.9,0,0,1-.9-.895V.895a.9.9,0,0,1,.9-.895h27.142q24.067,0,37.463,12.9,17.6,16.858,17.6,47.158,0,29.833-14.877,46.07-12.7,13.83-37.852,13.829ZM278.13,30.806v59.2a.9.9,0,0,0,1,.891q16.445-1.628,16.446-29.915,0-14.372-4.44-22.686-4.44-8.391-11.994-8.39h-.115A.9.9,0,0,0,278.13,30.806Zm-81.978,89.148a.9.9,0,0,1-.846-.6l-5.787-16.492q-2.227-6.062-3.8-11.755a.894.894,0,0,0-1.726,0q-1.627,5.909-4.285,13.078l-5.777,15.194a.9.9,0,0,1-.839.577H139.758a.9.9,0,0,1-.813-1.274l28.429-60.573a.894.894,0,0,0,0-.764L140.594,1.28A.9.9,0,0,1,141.4,0h34.069a.9.9,0,0,1,.852.615L181.5,16.238q.856,2.254,1.675,5.283.415,1.537.839,3.274a.9.9,0,0,0,1.741.012q1.362-5.233,2.365-8.413L192.909.636A.9.9,0,0,1,193.766,0h34.29a.9.9,0,0,1,.81,1.278L202.24,57.342a.894.894,0,0,0,0,.766l28.731,60.569a.9.9,0,0,1-.811,1.278Zm-102.564,0a.9.9,0,0,1-.9-.855L89.857,55.382a.9.9,0,0,0-1.787-.064c0,.038-.007.076-.014.114-.766,4.545-11.778,63.794-11.778,63.794a.9.9,0,0,1-.881.728H50.422a.9.9,0,0,1-.886-.751S40.777,62.93,39.895,55.367a1.4,1.4,0,1,0-2.78.049c0,2.232-2.6,63.691-2.6,63.691a.9.9,0,0,1-.9.847H.9a.9.9,0,0,1-.891-1L13.817.791A.9.9,0,0,1,14.707,0H53.572a.9.9,0,0,1,.885.747L61.108,40.4q.855,4.973,1.519,10.8.2,1.772.391,3.638a.9.9,0,0,0,1.782.023q.784-6.13,1.838-11.429L74.755.728A.9.9,0,0,1,75.636,0h38.554a.9.9,0,0,1,.893.808l11.508,118.164a.9.9,0,0,1-.893.981Z" transform="translate(3.206 3.206)" fill="#fff" style="mix-blend-mode: multiply;isolation: isolate"/>
    </g>
    <g id="Vector_Smart_Object-4" data-name="Vector Smart Object">
      <g id="Group_131" data-name="Group 131">
        <g id="Group_130" data-name="Group 130" clip-path="url(#clip-path-2)">
          <path id="Path_675" data-name="Path 675" d="M17.91,77.127H0V10.032H17.352q12.971,0,19.241,5.345,7.387,6.3,7.387,17.512,0,12.212-7.86,18.208-5.37,4.041-15.419,4.041H17.91Zm0-37.067.816.043a6.855,6.855,0,0,0,5.2-2.021,7.685,7.685,0,0,0,1.933-5.541,8.3,8.3,0,0,0-1.89-5.649,6.046,6.046,0,0,0-4.81-2.216H17.91Z" transform="translate(0.037 -8.816)" fill="#fff"/>
          <path id="Path_676" data-name="Path 676" d="M414.389,77.129V10.034h33.286V25.808H432.3v9.778h13.787V50.752H432.3V61.007h15.376V77.129Z" transform="translate(-364.101 -8.817)" fill="#fff"/>
          <path id="Path_677" data-name="Path 677" d="M799.079,77.13H779.708l-8.848-23.9q-.128-.608-.451-1.608t-.795-2.39l.129,4.432V77.13H751.92V10.036h18.34q12.111,0,18.124,4.824,7.644,6.171,7.645,17.556,0,12.168-10.265,16.817ZM769.83,41.106h1.2a6.526,6.526,0,0,0,5.154-2.39,8.979,8.979,0,0,0,2.062-6.084q0-7.518-7.774-7.518h-.644Z" transform="translate(-660.701 -8.819)" fill="#fff"/>
          <path id="Path_678" data-name="Path 678" d="M1207.6,77.129h-17.91V10.034h31.654V25.808H1207.6v9.778h12.8V50.752h-12.8Z" transform="translate(-1045.381 -8.817)" fill="#fff"/>
          <path id="Path_679" data-name="Path 679" d="M1508.091,77.129V10.034h33.286V25.808H1526v9.778h13.787V50.752H1526V61.007h15.376V77.129Z" transform="translate(-1325.175 -8.817)" fill="#fff"/>
          <path id="Path_680" data-name="Path 680" d="M1870.769,47.67l-1.031,19.381a28.774,28.774,0,0,1-10.695,2.434,24.452,24.452,0,0,1-18.726-8.256q-8.5-9.256-8.5-26.2,0-15.861,7.988-25.465Q1847.791,0,1861.148,0A25.634,25.634,0,0,1,1870,1.652V20.815q-3.995-4.041-8.2-4.041a9.726,9.726,0,0,0-8.59,4.737q-3.092,4.78-3.092,13.21a31.357,31.357,0,0,0,.773,7.3,17.349,17.349,0,0,0,2.212,5.432,10.048,10.048,0,0,0,3.543,3.39,9.713,9.713,0,0,0,4.811,1.173q4.638,0,9.32-4.345" transform="translate(-1609.641 0)" fill="#fff"/>
          <path id="Path_681" data-name="Path 681" d="M2200.319,77.129h-17.91V26.112h-9.878V10.034h38.053V26.112h-10.265Z" transform="translate(-1909.042 -8.817)" fill="#fff"/>
          <path id="Path_682" data-name="Path 682" d="M2555.936,77.129h-31.353V10.034h17.91V61.007h13.443Z" transform="translate(-2218.402 -8.817)" fill="#fff"/>
          <path id="Path_683" data-name="Path 683" d="M2789.866,77.13h-17.91V48.711l-16.45-38.675h18.683l3.221,9.951q.944,2.911,1.7,5.605t1.353,5.172q.988-3.693,1.718-6.366t1.289-4.324l3.264-10.038h18.554l-15.419,38.675Z" transform="translate(-2421.323 -8.819)" fill="#fff"/>
        </g>
      </g>
    </g>
  </g>
</svg>
