<svg xmlns="http://www.w3.org/2000/svg" width="71" height="71" fill="#0c2340" xmlns:v="https://vecta.io/nano"><path d="M24.587 30.406a7.38 7.38 0 0 0-5.221 2.163 7.39 7.39 0 0 0-2.163 5.221c0 1.958.778 3.836 2.163 5.221s3.263 2.163 5.221 2.163a7.38 7.38 0 0 0 5.221-2.163 7.39 7.39 0 0 0 2.163-5.221 7.38 7.38 0 0 0-2.163-5.221 7.39 7.39 0 0 0-5.221-2.163zm3.872 7.387c0 .766-.227 1.515-.653 2.151a3.87 3.87 0 0 1-1.738 1.426c-.708.293-1.486.37-2.237.22a3.87 3.87 0 0 1-3.043-3.043c-.149-.751-.073-1.53.22-2.237a3.87 3.87 0 0 1 3.578-2.39c2.139 0 3.872 1.734 3.872 3.872zm17.954-7.387c-1.46 0-2.888.433-4.102 1.244s-2.161 1.965-2.72 3.314a7.38 7.38 0 0 0-.42 4.266c.285 1.432.988 2.748 2.021 3.781a7.38 7.38 0 0 0 8.047 1.601c1.349-.559 2.502-1.505 3.314-2.72a7.38 7.38 0 0 0 1.244-4.102c-.001-1.958-.779-3.836-2.164-5.22a7.39 7.39 0 0 0-5.22-2.164zm3.869 7.387c0 .766-.227 1.515-.653 2.151a3.87 3.87 0 0 1-1.738 1.426c-.708.293-1.486.37-2.237.22a3.87 3.87 0 0 1-3.043-3.043c-.149-.751-.073-1.53.22-2.237a3.87 3.87 0 0 1 1.426-1.738 3.88 3.88 0 0 1 2.151-.653 3.87 3.87 0 0 1 3.872 3.872zM35.5 5.917C19.161 5.917 5.917 19.161 5.917 35.5S19.161 65.083 35.5 65.083 65.083 51.839 65.083 35.5 51.839 5.917 35.5 5.917zm10.913 42.789A10.88 10.88 0 0 1 39 45.801l-3.497 3.804-3.5-3.807-.018.018c-2.144 1.889-4.944 2.861-7.797 2.709a10.92 10.92 0 0 1-7.465-3.524 10.91 10.91 0 0 1-2.863-7.742 10.92 10.92 0 0 1 3.375-7.533l-3.574-3.884h7.937a24.73 24.73 0 0 1 27.826 0h7.916l-3.571 3.884a10.92 10.92 0 0 1 3.27 5.568 10.91 10.91 0 0 1-.449 6.442 10.92 10.92 0 0 1-4.01 5.061c-1.816 1.244-3.967 1.91-6.168 1.91zM27.305 26.767c4.662 1.784 8.197 5.952 8.197 10.813 0-4.861 3.535-9.029 8.195-10.813-2.597-1.082-5.383-1.64-8.196-1.64s-5.599.557-8.196 1.64z"/></svg>