<svg xmlns="http://www.w3.org/2000/svg" width="35.526" height="29.612" viewBox="0 0 35.526 29.612">
  <path id="volume-up-solid" d="M13.261,19.447,7.778,24.93H1.48A1.477,1.477,0,0,0,0,26.41v8.882a1.477,1.477,0,0,0,1.48,1.48h6.3l5.489,5.489A1.483,1.483,0,0,0,15.8,41.213V20.489a1.483,1.483,0,0,0-2.529-1.049ZM27.65,16.295a1.493,1.493,0,0,0-1.634,2.5,14.415,14.415,0,0,1,0,24.128,1.493,1.493,0,0,0,1.634,2.5,17.4,17.4,0,0,0,.006-29.124Zm1.955,14.556a11.389,11.389,0,0,0-5.292-9.634,1.474,1.474,0,0,0-2.042.463,1.5,1.5,0,0,0,.456,2.06,8.42,8.42,0,0,1,0,14.229,1.5,1.5,0,0,0-.456,2.06,1.478,1.478,0,0,0,2.042.463A11.408,11.408,0,0,0,29.605,30.851Zm-8.746-4.743a1.481,1.481,0,1,0-1.425,2.6,2.431,2.431,0,0,1,0,4.293,1.481,1.481,0,1,0,1.425,2.6,5.394,5.394,0,0,0,0-9.486Z" transform="translate(0 -16.051)"/>
</svg>
